# xmcd
#
# Track frame offsets:
#	150
#	14126
#	28124
#	38553
#	49985
#	64567
#	74555
#	88496
#	99761
#	116595
#	131952
#	147026
#	174242
#	188630
#	203097
#	216858
#	229158
#	241974
#	258911
#	270920
#
# Disc length: 4228 seconds
#
# Revision: 1
# Processed by: cddbd v1.5.2PL0 Copyright (c) Steve Scherf et al.
# Submitted via: audiograbber 1.83.01
#
DISCID=1f108214
DTITLE=Snakefinger - Snakefinger's History of the Blues
DYEAR=1983
DGENRE=Blues
TTITLE0=Creeper Blues
TTITLE1=Turn your Money green
TTITLE2=You can't get the Stuff no more
TTITLE3=If you haven't any Hay
TTITLE4=Preachin' Blues
TTITLE5=Strollin' with the Bones
TTITLE6=She walks right in
TTITLE7=36-22-36
TTITLE8=These Kind of Blues
TTITLE9=Cryin' for my Baby
TTITLE10=I can't be satisfied
TTITLE11=Ten Years ago
TTITLE12=Everyday I have the Blues
TTITLE13=You Upsets me Baby
TTITLE14=The Stumble
TTITLE15=(I'm) Tore down
TTITLE16=Crosscut Saw
TTITLE17=(Let's have a) Natural Ball
TTITLE18=Days of Old
TTITLE19=Stolen Moments
EXTD=
EXTT0=
EXTT1=
EXTT2=
EXTT3=
EXTT4=
EXTT5=
EXTT6=
EXTT7=
EXTT8=
EXTT9=
EXTT10=
EXTT11=
EXTT12=
EXTT13=
EXTT14=
EXTT15=
EXTT16=
EXTT17=
EXTT18=
EXTT19=
PLAYORDER=
